<svg class="lds-gears" width="200px"  height="200px"  xmlns="http://www.w3.org/2000/svg" xmlns:xlink="http://www.w3.org/1999/xlink" viewBox="0 0 100 100" preserveAspectRatio="xMidYMid" style="background: none;"><g transform="translate(50 50)"> <g transform="translate(-19 -19) scale(0.6)"> <g transform="rotate(39.054)">
<animateTransform attributeName="transform" type="rotate" values="0;360" keyTimes="0;1" dur="2s" begin="0s" repeatCount="indefinite"></animateTransform><path d="M38.27205246651922 -7.5 L48.27205246651922 -7.5 L48.27205246651922 7.5 L38.27205246651922 7.5 A39 39 0 0 1 32.365728687902184 21.759126970103967 L32.365728687902184 21.759126970103967 L39.43679649976766 28.830194781969443 L28.830194781969446 39.43679649976765 L21.759126970103967 32.36572868790218 A39 39 0 0 1 7.500000000000006 38.27205246651922 L7.500000000000006 38.27205246651922 L7.500000000000007 48.27205246651922 L-7.500000000000001 48.27205246651922 L-7.500000000000002 38.27205246651922 A39 39 0 0 1 -21.759126970103967 32.36572868790218 L-21.759126970103967 32.36572868790218 L-28.830194781969443 39.43679649976765 L-39.43679649976765 28.830194781969453 L-32.36572868790218 21.759126970103974 A39 39 0 0 1 -38.27205246651922 7.499999999999999 L-38.27205246651922 7.499999999999999 L-48.27205246651922 7.5 L-48.27205246651923 -7.49999999999999 L-38.27205246651923 -7.499999999999991 A39 39 0 0 1 -32.365728687902184 -21.759126970103967 L-32.365728687902184 -21.759126970103967 L-39.43679649976766 -28.830194781969443 L-28.830194781969453 -39.436796499767645 L-21.759126970103974 -32.36572868790217 A39 39 0 0 1 -7.500000000000002 -38.27205246651922 L-7.500000000000002 -38.27205246651922 L-7.5000000000000036 -48.27205246651922 L7.499999999999986 -48.27205246651923 L7.499999999999988 -38.27205246651923 A39 39 0 0 1 21.759126970103964 -32.365728687902184 L21.759126970103964 -32.365728687902184 L28.830194781969436 -39.43679649976766 L39.43679649976764 -28.83019478196946 L32.36572868790217 -21.75912697010398 A39 39 0 0 1 38.27205246651922 -7.5000000000000036 M0 -25A25 25 0 1 0 0 25 A25 25 0 1 0 0 -25" fill="#3e5271"></path></g></g> <g transform="translate(19 19) scale(0.6)"> <g transform="rotate(298.446)">
<animateTransform attributeName="transform" type="rotate" values="360;0" keyTimes="0;1" dur="2s" begin="-0.125s" repeatCount="indefinite"></animateTransform><path d="M38.27205246651922 -7.5 L48.27205246651922 -7.5 L48.27205246651922 7.5 L38.27205246651922 7.5 A39 39 0 0 1 32.365728687902184 21.759126970103967 L32.365728687902184 21.759126970103967 L39.43679649976766 28.830194781969443 L28.830194781969446 39.43679649976765 L21.759126970103967 32.36572868790218 A39 39 0 0 1 7.500000000000006 38.27205246651922 L7.500000000000006 38.27205246651922 L7.500000000000007 48.27205246651922 L-7.500000000000001 48.27205246651922 L-7.500000000000002 38.27205246651922 A39 39 0 0 1 -21.759126970103967 32.36572868790218 L-21.759126970103967 32.36572868790218 L-28.830194781969443 39.43679649976765 L-39.43679649976765 28.830194781969453 L-32.36572868790218 21.759126970103974 A39 39 0 0 1 -38.27205246651922 7.499999999999999 L-38.27205246651922 7.499999999999999 L-48.27205246651922 7.5 L-48.27205246651923 -7.49999999999999 L-38.27205246651923 -7.499999999999991 A39 39 0 0 1 -32.365728687902184 -21.759126970103967 L-32.365728687902184 -21.759126970103967 L-39.43679649976766 -28.830194781969443 L-28.830194781969453 -39.436796499767645 L-21.759126970103974 -32.36572868790217 A39 39 0 0 1 -7.500000000000002 -38.27205246651922 L-7.500000000000002 -38.27205246651922 L-7.5000000000000036 -48.27205246651922 L7.499999999999986 -48.27205246651923 L7.499999999999988 -38.27205246651923 A39 39 0 0 1 21.759126970103964 -32.365728687902184 L21.759126970103964 -32.365728687902184 L28.830194781969436 -39.43679649976766 L39.43679649976764 -28.83019478196946 L32.36572868790217 -21.75912697010398 A39 39 0 0 1 38.27205246651922 -7.5000000000000036 M0 -25A25 25 0 1 0 0 25 A25 25 0 1 0 0 -25" fill="#94ccfc"></path></g></g></g></svg>